<svg id="Layer_1" data-name="Layer 1" xmlns="http://www.w3.org/2000/svg" viewBox="0 0 32 32"><defs><style>.cls-1,.cls-10,.cls-2,.cls-3,.cls-4,.cls-5,.cls-6,.cls-7,.cls-8,.cls-9{fill:none;stroke:#000;stroke-miterlimit:10;}.cls-1,.cls-10,.cls-2,.cls-3,.cls-4,.cls-5,.cls-7,.cls-8,.cls-9{stroke-linecap:round;}.cls-1{stroke-dasharray:2.26 0.9 2.26 2.26 9.03 2.26;}.cls-2{stroke-dasharray:2.73 0.55 2.73 2.73 10.9 2.73;}.cls-3{stroke-dasharray:3.64 0.73 3.64 3.64 14.55 3.64;}.cls-4{stroke-dasharray:17.72 3.54 17.72 17.72 70.9 17.72;}.cls-5{stroke-dasharray:17.72 70.9 17.72 3.54 17.72 17.72;}.cls-8{stroke-dasharray:4 1 3 4 7 0;}.cls-9{stroke-dasharray:3 2 3 4 6 0;}.cls-10{stroke-dasharray:2 0 0 10 3 2;}</style></defs><title>rising-logo</title><path d="M15.87,18.61A3.54,3.54,0,0,0,14,25.18h3.69a3.54,3.54,0,0,0-1.85-6.57Zm0,4.24a.84.84,0,1,1,0-1.68.84.84,0,1,1,0,1.68Z"/><line class="cls-1" x1="23.59" y1="25.06" x2="23.98" y2="25.06"/><line class="cls-2" x1="22.47" y1="25.06" x2="22.93" y2="25.06"/><line class="cls-3" x1="21.16" y1="25.06" x2="21.77" y2="25.06"/><line class="cls-4" x1="12.54" y1="25.06" x2="15.49" y2="25.06"/><line class="cls-5" x1="15.65" y1="25.06" x2="20.26" y2="25.06"/><path class="cls-6" d="M15.89,11.37A11,11,0,0,0,5.27,25.06H26.52A11,11,0,0,0,15.89,11.37Z"/><line class="cls-7" x1="15.9" y1="11.16" x2="15.89" y2="6.94"/><line class="cls-7" x1="20.29" y1="12.06" x2="20.84" y2="8.77"/><line class="cls-7" x1="18.04" y1="11.31" x2="18.36" y2="7.69"/><line class="cls-7" x1="22.28" y1="13.42" x2="23.29" y2="10.41"/><line class="cls-7" x1="24.08" y1="14.77" x2="25.35" y2="12.75"/><line class="cls-7" x1="25.39" y1="16.86" x2="26.86" y2="15.59"/><line class="cls-7" x1="26.43" y1="19.31" x2="28.06" y2="18.35"/><line class="cls-7" x1="27.05" y1="21.74" x2="28.43" y2="21.38"/><line class="cls-7" x1="11.52" y1="12.08" x2="10.96" y2="8.79"/><line class="cls-7" x1="13.76" y1="11.33" x2="13.44" y2="7.7"/><line class="cls-7" x1="9.52" y1="13.44" x2="8.51" y2="10.43"/><line class="cls-7" x1="7.73" y1="14.79" x2="6.46" y2="12.77"/><line class="cls-7" x1="6.42" y1="16.88" x2="4.94" y2="15.61"/><line class="cls-7" x1="5.37" y1="19.33" x2="3.75" y2="18.37"/><line class="cls-7" x1="4.76" y1="21.75" x2="3.37" y2="21.4"/><path d="M17.74,25.06H14.05a3.48,3.48,0,0,0,3.69,0Z"/><path class="cls-8" d="M24.73,23.26A8.92,8.92,0,0,0,7.06,20.83a8.82,8.82,0,0,0,.45,4.23H24.28A8.78,8.78,0,0,0,24.73,23.26Z"/><path class="cls-9" d="M22.7,21.75a6.8,6.8,0,0,0-13.59,0A6.71,6.71,0,0,0,10,25.06H21.84A6.71,6.71,0,0,0,22.7,21.75Z"/><path class="cls-10" d="M19.89,24.44a4.75,4.75,0,1,0-7.34.57l6.77.11A5.4,5.4,0,0,0,19.89,24.44Z"/><line class="cls-7" x1="0.46" y1="25.33" x2="31.54" y2="25.33"/><circle class="cls-7" cx="15.88" cy="21.89" r="0.84"/></svg>